<svg width="26" height="32" viewBox="0 0 26 32" fill="none" xmlns="http://www.w3.org/2000/svg">
<path d="M22.5006 6.50033H19.334C19.334 3.00116 16.4998 0.166992 13.0007 0.166992C9.50148 0.166992 6.66732 3.00116 6.66732 6.50033H3.50065C1.75898 6.50033 0.333984 7.92533 0.333984 9.66699V28.667C0.333984 30.4087 1.75898 31.8337 3.50065 31.8337H22.5006C24.2423 31.8337 25.6673 30.4087 25.6673 28.667V9.66699C25.6673 7.92533 24.2423 6.50033 22.5006 6.50033ZM13.0007 3.33366C14.7423 3.33366 16.1673 4.75866 16.1673 6.50033H9.83398C9.83398 4.75866 11.259 3.33366 13.0007 3.33366ZM22.5006 28.667H3.50065V9.66699H6.66732V12.8337C6.66732 13.7045 7.37982 14.417 8.25065 14.417C9.12148 14.417 9.83398 13.7045 9.83398 12.8337V9.66699H16.1673V12.8337C16.1673 13.7045 16.8798 14.417 17.7507 14.417C18.6215 14.417 19.334 13.7045 19.334 12.8337V9.66699H22.5006V28.667Z" fill="#002F52"/>
</svg>
